HIERARCHY
ROOT Hips
{
	OFFSET 0.00 86.18 0.00
	CHANNELS 6 Xposition Yposition Zposition Yrotation Xrotation Zrotation
	JOINT RightUpLeg
	{
		OFFSET -9.25 0.00 0.00
		CHANNELS 6 Xposition Yposition Zposition Yrotation Xrotation Zrotation
		JOINT RightLeg
		{
			OFFSET 0.00 -42.00 0.00
			CHANNELS 6 Xposition Yposition Zposition Yrotation Xrotation Zrotation
			JOINT RightFoot
			{
				OFFSET 0.00 -42.00 0.00
				CHANNELS 6 Xposition Yposition Zposition Yrotation Xrotation Zrotation
				End Site
				{
					OFFSET 0 -1.14 11.36
				}
			}
		}
	}
	JOINT LeftUpLeg
	{
		OFFSET 9.25 0.00 0.00
		CHANNELS 6 Xposition Yposition Zposition Yrotation Xrotation Zrotation
		JOINT LeftLeg
		{
			OFFSET 0.00 -42.00 0.00
			CHANNELS 6 Xposition Yposition Zposition Yrotation Xrotation Zrotation
			JOINT LeftFoot
			{
				OFFSET 0.00 -42.00 0.00
				CHANNELS 6 Xposition Yposition Zposition Yrotation Xrotation Zrotation
				End Site
				{
					OFFSET 0 -1.14 11.36
				}
			}
		}
	}
	JOINT Spine
	{
		OFFSET 0.00 10.46 0.00
		CHANNELS 6 Xposition Yposition Zposition Yrotation Xrotation Zrotation
		JOINT Spine1
		{
			OFFSET 0.00 9.75 0.00
			CHANNELS 6 Xposition Yposition Zposition Yrotation Xrotation Zrotation
			JOINT Spine2
			{
				OFFSET 0.00 10.15 0.00
				CHANNELS 6 Xposition Yposition Zposition Yrotation Xrotation Zrotation
				JOINT Spine3
				{
					OFFSET 0.00 9.75 0.00
					CHANNELS 6 Xposition Yposition Zposition Yrotation Xrotation Zrotation
			 		JOINT Neck
					{
						OFFSET 0.00 10.42 0.00
						CHANNELS 6 Xposition Yposition Zposition Yrotation Xrotation Zrotation
						JOINT Head
						{
							OFFSET 0.00 9.50 0.00
							CHANNELS 6 Xposition Yposition Zposition Yrotation Xrotation Zrotation
							End Site
							{
								OFFSET 0 16.00 0
							}
						}    
					} 
					JOINT RightShoulder
	 					{
						OFFSET -3.20 6.94 0.00
						CHANNELS 6 Xposition Yposition Zposition Yrotation Xrotation Zrotation
						JOINT RightArm
						{
							OFFSET -16.00 0.00 0.00
							CHANNELS 6 Xposition Yposition Zposition Yrotation Xrotation Zrotation
							JOINT RightForeArm
							{
								OFFSET -26.50 0.00 0.00
								CHANNELS 6 Xposition Yposition Zposition Yrotation Xrotation Zrotation
								JOINT RightHand
								{
									OFFSET -26.00 0.00 0.00
									CHANNELS 6 Xposition Yposition Zposition Yrotation Xrotation Zrotation
									End Site
									{
										OFFSET -17.50 0 0
									}
								}
							}
						}	
					}
					JOINT LeftShoulder
					{
						OFFSET 3.20 6.94 0.00
						CHANNELS 6 Xposition Yposition Zposition Yrotation Xrotation Zrotation
						JOINT LeftArm
						{
							OFFSET 16.00 0.00 0.00
							CHANNELS 6 Xposition Yposition Zposition Yrotation Xrotation Zrotation
							JOINT LeftForeArm
							{
								OFFSET 26.50 0.00 0.00
								CHANNELS 6 Xposition Yposition Zposition Yrotation Xrotation Zrotation
								JOINT LeftHand
								{
									OFFSET 26.00 0.00 0.00
									CHANNELS 6 Xposition Yposition Zposition Yrotation Xrotation Zrotation
									End Site
									{
										OFFSET 17.50 0 0
									}
								}
							}
						}
					}     			
				}
			}
		} 
	} 
}
MOTION
Frames: 14
Frame Time: 0.010
-34.24 90.39 -255.82 107.94 -3.12 -4.55 -9.37 0.07 0.10 9.11 5.36 4.84 0.09 -42.04 0.15 7.38 27.88 -17.09 0.32 -41.91 -0.16 8.95 -16.30 21.95 9.22 0.03 -0.11 -2.01 -7.15 16.50 0.25 -41.92 -0.29 7.37 10.03 6.13 0.08 -41.93 0.08 -3.13 0.57 -25.23 -0.03 10.52 -0.50 0.10 7.16 5.04 -0.13 9.79 -1.02 0.06 1.80 1.26 -0.08 10.15 -0.34 0.21 2.96 2.09 -0.20 9.76 -0.48 -0.09 0.05 -0.33 -0.38 10.61 -0.88 -0.10 0.05 -0.33 -0.06 9.54 -0.39 -1.82 0.61 -5.96 -3.48 7.00 -0.55 3.34 -4.19 -10.33 -17.67 3.09 0.70 4.31 -52.13 39.27 -26.50 2.25 2.76 78.66 5.02 -8.02 -25.57 -0.21 0.18 8.30 -85.27 50.82 2.96 7.05 -0.72 -17.34 -24.15 -10.11 15.99 0.26 -0.03 5.54 -31.57 0.09 26.61 -1.08 -0.02 -73.69 -34.70 13.14 25.86 -0.62 -0.52 17.93 -59.39 -57.63 
-34.92 90.02 -254.24 108.61 -2.68 -4.14 -9.36 0.06 0.10 10.95 5.03 5.28 0.13 -42.06 0.16 8.99 28.26 -15.12 0.36 -41.90 -0.04 2.05 -18.75 21.76 9.15 0.02 -0.11 -2.02 -8.40 17.11 0.20 -41.93 -0.31 7.34 9.18 6.11 0.06 -41.92 0.10 -4.70 2.89 -26.84 -0.06 10.52 -0.52 0.12 7.74 4.53 -0.17 9.81 -0.96 0.07 1.94 1.13 -0.09 10.15 -0.28 0.21 3.21 1.88 -0.21 9.75 -0.38 0.13 0.02 -0.29 -0.44 10.59 -0.74 0.12 0.02 -0.29 -0.05 9.53 -0.45 2.07 0.54 -5.29 -3.47 6.94 -0.42 3.10 -3.83 -11.21 -17.50 2.41 0.53 11.50 -53.87 29.48 -26.76 2.02 2.07 76.64 7.42 -11.92 -25.66 -0.12 0.19 41.24 -87.02 21.76 2.98 7.02 -0.64 -19.70 -28.85 -9.16 16.00 0.47 -0.05 5.37 -22.53 7.36 26.56 -0.86 0.04 -77.74 -33.96 23.09 25.79 -0.59 -0.43 20.80 -61.13 -62.83 
-35.68 89.70 -252.76 109.32 -2.02 -3.65 -9.34 0.07 0.07 12.41 4.20 5.45 0.14 -42.08 0.10 9.13 28.33 -13.70 0.35 -41.92 0.08 -3.60 -21.09 21.14 9.01 0.07 0.40 -0.45 -8.65 17.36 0.09 -41.94 0.20 6.41 6.29 5.84 0.04 -41.94 0.09 -6.68 5.80 -28.77 -0.08 10.51 -0.50 0.17 8.12 3.98 -0.18 9.83 -0.82 0.08 2.04 0.99 -0.07 10.15 -0.20 0.22 3.37 1.65 -0.19 9.75 -0.25 0.17 -0.04 -0.27 -0.44 10.55 -0.56 0.16 -0.04 -0.27 -0.05 9.53 -0.40 2.89 -0.59 -4.82 -3.44 6.90 -0.25 3.13 -2.71 -11.77 -17.48 1.92 0.26 18.29 -54.93 19.79 -26.82 1.97 1.41 73.37 10.55 -16.22 -25.73 0.01 0.21 91.01 -86.07 -24.44 3.02 6.96 -0.50 -22.50 -33.91 -7.25 15.98 0.49 -0.03 7.23 -12.90 14.21 26.54 -0.83 0.04 -78.90 -33.88 31.62 25.73 -0.60 -0.40 23.02 -63.00 -67.53 
-36.49 89.44 -251.42 110.16 -1.21 -3.11 -9.30 0.08 0.00 12.98 3.16 5.31 0.12 -42.06 -0.06 7.84 27.81 -12.94 0.27 -41.86 0.25 -7.12 -22.94 20.18 9.02 0.04 0.22 -0.53 -10.35 17.26 0.10 -41.94 0.02 7.03 4.66 6.16 0.00 -41.98 0.05 -9.02 9.27 -30.84 -0.08 10.50 -0.45 0.27 8.35 3.43 -0.15 9.85 -0.67 0.10 2.10 0.85 -0.03 10.15 -0.14 0.24 3.47 1.42 -0.15 9.74 -0.16 0.19 -0.11 -0.25 -0.39 10.49 -0.40 0.19 -0.11 -0.25 -0.03 9.52 -0.38 3.47 -1.72 -4.49 -3.38 6.88 -0.14 3.59 -1.22 -11.94 -17.16 1.46 0.13 23.19 -53.48 8.36 -26.64 1.50 0.91 69.33 10.44 -21.64 -25.75 0.05 0.31 109.43 -83.21 -39.88 3.06 7.05 -0.29 -25.20 -36.43 -5.54 15.91 0.58 -0.00 9.33 -6.40 20.56 26.37 -0.53 -0.06 -76.80 -35.88 36.89 25.74 -0.47 -0.16 21.23 -64.26 -69.34 
-37.20 89.22 -250.22 111.13 -0.27 -2.64 -9.23 0.09 -0.04 12.37 2.26 5.03 0.11 -42.06 -0.20 6.11 26.66 -12.74 0.34 -41.73 0.51 -9.25 -24.34 19.26 9.02 0.04 0.22 -0.30 -11.62 16.99 0.10 -41.92 -0.10 7.73 1.93 6.32 0.01 -42.01 -0.13 -11.65 13.45 -32.83 -0.06 10.49 -0.37 0.38 8.34 2.98 -0.09 9.87 -0.49 0.12 2.10 0.74 0.01 10.15 -0.08 0.27 3.48 1.23 -0.10 9.74 -0.07 0.22 -0.15 -0.24 -0.33 10.43 -0.25 0.21 -0.15 -0.24 -0.01 9.52 -0.36 3.97 -2.61 -4.42 -3.35 6.95 -0.21 5.23 -0.05 -11.58 -16.76 1.23 -0.13 23.33 -50.30 -0.86 -26.32 1.02 0.64 65.93 8.39 -26.45 -25.74 0.00 0.41 112.91 -79.71 -41.61 3.08 7.12 -0.08 -28.74 -36.14 -2.68 15.83 0.53 0.05 12.57 -3.85 25.58 26.28 -0.39 -0.16 -73.30 -38.55 39.51 25.77 -0.35 -0.00 18.97 -65.11 -69.71 
-37.65 89.06 -249.28 112.15 0.92 -2.28 -9.14 0.07 -0.01 10.55 1.55 4.79 0.11 -42.07 -0.20 5.22 25.18 -12.59 0.37 -41.67 0.66 -11.04 -25.43 18.22 9.06 0.04 0.18 -0.19 -12.96 16.58 0.11 -41.92 -0.39 8.64 -1.11 6.48 -0.16 -41.86 -0.54 -14.13 17.99 -34.91 -0.05 10.48 -0.31 0.60 8.07 2.64 -0.04 9.88 -0.31 0.17 2.04 0.65 0.03 10.16 -0.06 0.34 3.38 1.09 -0.09 9.74 -0.01 0.23 -0.20 -0.24 -0.29 10.37 -0.14 0.23 -0.20 -0.24 0.00 9.52 -0.32 4.33 -3.56 -4.48 -3.35 6.96 -0.21 5.40 1.07 -11.81 -16.19 -0.98 2.06 18.26 -41.84 -18.53 -25.81 -2.16 0.73 65.07 -10.21 -29.32 -25.67 -0.06 0.45 108.93 -76.55 -37.97 3.11 7.15 0.02 -33.41 -35.04 1.26 15.78 0.44 0.07 16.94 -3.85 29.07 26.25 -0.39 -0.20 -69.10 -41.11 38.89 25.78 -0.25 0.09 15.13 -65.37 -66.99 
-37.80 88.95 -248.72 113.21 2.20 -2.01 -9.07 0.04 0.03 7.87 0.95 4.72 0.14 -42.09 -0.15 5.04 23.46 -12.47 0.16 -41.75 0.58 -11.93 -26.09 16.54 9.02 0.04 0.16 -0.31 -14.17 16.29 -0.02 -41.95 -0.69 9.97 -3.75 6.51 -0.40 -41.53 -0.99 -16.70 21.68 -36.32 -0.05 10.47 -0.21 0.94 7.46 2.41 -0.02 9.88 -0.08 0.25 1.90 0.59 0.01 10.16 0.01 0.47 3.16 0.99 -0.12 9.74 0.07 0.24 -0.23 -0.24 -0.31 10.32 0.03 0.23 -0.24 -0.24 0.01 9.51 -0.22 4.53 -4.20 -4.55 -3.39 6.90 0.00 3.49 1.93 -12.90 -16.03 -1.09 1.92 16.10 -41.44 -20.99 -25.58 -2.11 0.59 64.73 -12.95 -29.50 -25.57 -0.10 0.41 103.24 -73.82 -34.25 3.18 6.94 0.06 -39.96 -33.13 7.46 15.74 0.28 -0.04 23.81 -3.41 29.46 26.23 -0.33 -0.19 -65.68 -43.01 37.72 25.77 -0.18 0.14 9.31 -65.58 -60.90 
-37.65 88.95 -248.25 114.28 3.29 -1.72 -9.04 0.00 0.05 4.92 0.57 4.88 0.10 -42.09 -0.09 4.72 21.55 -12.45 -0.10 -41.88 0.34 -11.38 -26.07 14.59 8.89 0.01 0.12 -0.77 -15.11 16.00 -0.30 -41.97 -0.70 12.41 -4.85 6.57 -0.37 -41.34 -1.09 -19.46 22.76 -36.11 -0.05 10.45 -0.08 1.26 6.73 2.25 -0.01 9.87 0.19 0.33 1.72 0.55 -0.00 10.16 0.11 0.59 2.87 0.92 -0.15 9.75 0.21 0.24 -0.24 -0.26 -0.33 10.27 0.27 0.24 -0.24 -0.26 0.01 9.50 -0.10 4.64 -4.33 -4.83 -3.43 6.85 0.23 1.40 2.29 -14.20 -15.86 -1.21 1.78 14.07 -40.77 -22.06 -25.45 -1.98 0.47 64.87 -15.66 -28.17 -25.48 -0.11 0.38 98.58 -71.37 -32.45 3.25 6.75 0.18 -44.04 -28.34 12.20 15.67 0.18 -0.15 29.87 -4.65 26.89 26.22 -0.24 -0.19 -62.89 -43.98 36.36 25.75 -0.18 0.16 2.07 -65.69 -52.38 
-37.49 89.03 -247.90 115.27 4.25 -1.40 -9.06 -0.05 0.06 2.05 0.20 5.14 0.00 -42.06 -0.04 3.92 19.53 -12.54 -0.43 -41.99 -0.03 -9.68 -25.29 13.22 8.92 0.02 0.06 -1.05 -16.00 14.90 -0.33 -41.94 -0.42 14.88 -4.53 7.16 -0.22 -41.48 -0.95 -20.36 20.04 -35.26 -0.06 10.45 0.02 1.56 6.07 2.19 -0.00 9.86 0.36 0.40 1.56 0.53 0.00 10.17 0.16 0.71 2.61 0.89 -0.15 9.75 0.28 0.25 -0.25 -0.29 -0.32 10.24 0.44 0.25 -0.25 -0.29 0.01 9.50 -0.01 4.84 -4.39 -5.49 -3.45 6.84 0.42 -0.22 2.03 -15.32 -15.81 -1.35 1.73 12.46 -39.81 -22.46 -25.44 -1.96 0.42 65.15 -18.11 -25.97 -25.41 -0.18 0.37 94.74 -69.46 -31.74 3.30 6.69 0.25 -44.50 -21.78 14.16 15.60 0.13 -0.27 33.64 -8.06 22.92 26.21 -0.20 -0.24 -59.95 -44.34 34.10 25.72 -0.21 0.13 -5.67 -65.50 -42.73 
-37.42 89.21 -247.17 116.14 5.05 -0.89 -9.11 -0.09 0.10 -0.55 -0.20 5.24 -0.10 -42.02 0.04 2.87 17.68 -12.74 -0.63 -41.99 -0.29 -7.25 -24.06 12.44 9.14 0.04 -0.09 -0.49 -17.15 12.79 -0.07 -41.90 -0.31 16.37 -3.84 8.01 0.22 -41.80 -0.67 -20.24 16.05 -32.30 -0.06 10.44 0.06 1.90 5.41 1.99 -0.02 9.83 0.44 0.49 1.40 0.48 0.01 10.16 0.16 0.84 2.35 0.81 -0.15 9.75 0.30 0.18 -0.24 -0.29 -0.31 10.23 0.52 0.17 -0.24 -0.29 0.10 9.50 0.02 3.53 -4.18 -5.39 -3.46 6.78 0.64 -1.21 0.81 -16.15 -15.75 -1.31 1.58 11.66 -38.47 -20.87 -25.58 -1.69 0.39 65.28 -18.51 -23.36 -25.37 -0.30 0.34 91.02 -67.78 -31.04 3.35 6.69 0.18 -42.49 -15.15 14.01 15.54 0.02 -0.44 35.35 -12.70 19.18 26.22 -0.22 -0.32 -56.76 -44.30 30.61 25.70 -0.23 0.08 -12.85 -64.97 -33.63 
-37.57 89.45 -246.37 117.07 5.62 -0.29 -9.15 -0.12 0.07 -2.75 -0.80 5.13 -0.11 -41.99 0.10 1.44 16.40 -13.08 -0.65 -41.89 -0.33 -4.63 -22.62 12.62 9.32 0.03 -0.19 0.46 -18.06 10.67 0.11 -41.86 -0.32 17.04 -3.11 8.65 0.49 -42.04 -0.33 -19.33 12.32 -28.07 -0.07 10.44 0.07 2.19 4.93 1.62 -0.04 9.79 0.45 0.56 1.40 0.39 0.01 10.16 0.11 0.95 2.05 0.65 -0.15 9.74 0.26 0.10 -0.24 -0.28 -0.30 10.24 0.55 0.11 -0.24 -0.28 0.19 9.50 0.02 2.26 -4.02 -5.16 -3.44 6.82 0.53 0.43 -1.70 -15.60 -15.77 -1.17 1.17 9.88 -34.92 -19.77 -25.74 -1.45 0.35 65.13 -18.39 -20.68 -25.36 -0.41 0.28 87.08 -65.82 -29.71 3.37 6.80 -0.08 -38.68 -10.66 12.19 15.51 0.00 -0.59 34.54 -17.06 17.03 26.25 -0.23 -0.35 -54.25 -43.77 26.89 25.68 -0.23 0.02 -18.03 -64.20 -26.84 
-37.75 89.76 -245.34 117.95 5.83 0.34 -9.16 -0.12 -0.02 -4.28 -1.54 4.73 -0.10 -41.96 0.14 -0.04 16.03 -13.12 -0.31 -41.76 -0.15 -2.59 -21.21 13.59 9.41 0.01 -0.22 1.84 -18.31 8.95 0.14 -41.84 -0.30 17.15 -2.43 8.82 0.56 -42.23 -0.00 -17.52 9.17 -23.89 -0.09 10.44 0.10 2.51 4.51 1.01 -0.07 9.75 0.43 0.63 1.11 0.23 0.01 10.15 0.07 1.07 1.82 0.40 -0.16 9.74 0.22 0.12 -0.21 -0.29 -0.27 10.25 0.54 0.12 -0.21 -0.29 0.17 9.51 0.06 2.53 -3.52 -5.27 -3.38 7.03 0.14 3.54 -3.12 -13.03 -15.84 -0.79 0.59 7.76 -30.97 -20.18 -25.89 -1.22 0.31 64.67 -17.88 -18.35 -25.38 -0.49 0.22 82.41 -63.42 -27.05 3.14 6.95 -0.16 -30.96 -9.53 9.46 15.52 0.03 -0.42 28.35 -18.78 16.66 26.28 -0.22 -0.36 -52.72 -43.13 23.84 25.72 -0.25 -0.09 -21.46 -63.84 -22.76 
-37.86 90.15 -244.45 118.74 5.87 0.92 -9.13 -0.10 -0.11 -5.35 -2.28 4.15 -0.09 -41.94 0.20 -1.07 16.26 -12.69 -0.04 -41.73 -0.02 -1.51 -19.83 15.26 9.41 -0.00 -0.22 3.61 -18.07 7.79 0.14 -41.82 -0.25 16.82 -1.65 8.21 0.30 -42.23 0.10 -14.69 6.47 -20.19 -0.11 10.44 0.14 3.07 3.69 0.41 -0.11 9.72 0.41 0.77 0.91 0.08 -0.00 10.15 0.06 1.29 1.49 0.15 -0.18 9.74 0.22 0.13 -0.15 -0.29 -0.27 10.25 0.55 0.13 -0.15 -0.29 0.14 9.50 0.11 2.59 -2.53 -5.20 -3.37 7.14 -0.11 4.20 -3.46 -11.37 -15.82 -0.50 0.25 7.09 -28.07 -19.06 -26.02 -1.02 0.26 63.78 -17.10 -16.32 -25.42 -0.51 0.15 76.96 -60.62 -22.85 2.88 7.21 -0.21 -21.13 -10.52 6.18 15.55 0.18 -0.15 18.90 -17.89 17.15 26.30 -0.21 -0.34 -51.94 -42.31 21.52 25.72 -0.23 -0.14 -22.48 -63.17 -21.25 
-37.79 90.64 -243.61 119.53 6.09 1.44 -9.12 -0.08 -0.12 -6.09 -2.97 3.58 -0.10 -41.93 0.26 -1.33 16.51 -11.87 0.05 -41.78 -0.01 -1.38 -18.28 17.26 9.34 0.00 -0.22 5.39 -17.69 7.02 0.05 -41.82 -0.31 16.16 -1.23 7.18 -0.06 -42.13 -0.12 -10.93 4.59 -17.76 -0.14 10.44 0.16 3.63 2.95 -0.03 -0.15 9.72 0.41 0.91 0.72 -0.02 0.01 10.15 0.05 1.51 1.19 -0.03 -0.16 9.73 0.20 0.05 -0.10 -0.26 -0.25 10.25 0.54 0.05 -0.10 -0.26 0.19 9.50 0.09 1.04 -1.65 -4.78 -3.36 7.05 0.08 1.40 -2.56 -11.48 -15.78 -0.46 0.39 8.88 -27.61 -15.96 -26.12 -0.87 0.23 62.59 -16.19 -14.72 -25.48 -0.51 0.10 71.29 -57.66 -17.83 2.68 7.39 -0.12 -9.29 -11.65 4.61 15.56 0.30 0.17 8.12 -16.48 14.76 26.31 -0.17 -0.33 -51.50 -41.24 19.52 25.72 -0.17 -0.13 -21.54 -61.98 -21.92 
